<?xml version="1.0" encoding="UTF-8" standalone="no"?>
<!-- Created with Inkscape (http://www.inkscape.org/) -->

<svg
   width="122.80622mm"
   height="126.46037mm"
   viewBox="0 0 122.80622 126.46037"
   version="1.1"
   id="svg1"
   xml:space="preserve"
   xmlns="http://www.w3.org/2000/svg"
   xmlns:svg="http://www.w3.org/2000/svg"><defs
     id="defs1" /><g
     id="g1"
     transform="matrix(0.26458333,0,0,0.26458333,-6.5425196,-4.7630429)"
     style="display:inline"><path
       id="path35"
       style="display:inline;fill:#000000;fill-opacity:1"
       d="m 263.46316,18.118605 c -10.5683,-0.418362 -21.20054,0.382339 -31.7871,0.935547 -7.87837,0.41169 -15.83489,0.744876 -23.57227,2.136719 -14.0907,2.534731 -28.19758,5.25857 -42.01758,8.951172 -17.36655,4.640204 -33.89856,11.594357 -49.42773,21.574219 -4.39171,2.89389 -8.59574,5.414794 -12.53907,8.291015 -20.781298,15.15768 -37.220693,34.161158 -49.421873,56.765623 -11.865207,21.98203 -20.097715,45.27431 -23.695313,70.04297 -2.281831,15.70991 -4.943384,31.44959 -5.779297,47.26368 -1.203825,22.77434 -0.313624,45.5906 3.781251,68.15429 3.678633,20.27008 9.355121,39.95593 18.039062,58.64063 10.581646,22.76788 24.269349,43.30618 43.308595,60.15039 14.760625,13.05893 31.045695,23.21423 49.476565,30.11914 2.53877,0.95114 5.47324,2.84473 6.64648,5.11719 7.57205,14.66644 19.87069,23.60961 34.65821,29.68359 18.65251,7.66156 38.47331,9.10453 58.23828,9.88282 14.062,0.55374 28.18716,-0.7783 42.2832,-0.7461 14.56821,0.0333 28.79633,-2.08779 42.66406,-6.18359 15.5333,-4.58777 29.80854,-11.89115 38.83399,-25.91406 4.33874,-6.74112 8.62201,-12.14923 16.74609,-14.09961 3.89316,-0.9346 7.6015,-2.97208 11.15039,-4.94727 16.85242,-9.37976 32.11829,-20.67921 45.01368,-35.2793 9.83551,-11.13569 18.09567,-23.19775 25.08398,-36.19726 9.85986,-18.34104 17.28384,-37.65976 21.05664,-58.14844 2.80893,-15.25424 5.82046,-30.64853 6.46875,-46.07617 0.74804,-17.80315 -0.71588,-35.72686 -1.74414,-53.56836 -1.04587,-18.14695 -4.75989,-35.83947 -9.71094,-53.35938 C 466.55878,123.59251 447.77576,91.16629 417.40262,65.837356 400.24783,51.531524 380.81827,41.516215 359.95535,33.909621 328.77319,22.540641 296.24529,19.416323 263.46316,18.118605 Z" /></g></svg>
